# Blender v2.82 (sub 7) OBJ File: ''
# www.blender.org
mtllib magic.mtl
o Cube_Cube.002
v 1.000000 -1.000000 1.000000
v 1.000000 1.000000 -1.000000
v 1.000000 1.000000 1.000000
v 1.000000 -1.000000 -1.000000
v -1.000000 1.000000 -1.000000
v -1.000000 -1.000000 -1.000000
v -1.000000 1.000000 1.000000
v -1.000000 -1.000000 1.000000
vt 0.667835 0.006995
vt 0.330335 0.991513
vt 0.330335 0.006995
vt 0.668750 0.003749
vt 0.331250 0.991108
vt 0.331250 0.003749
vt 0.670986 0.003192
vt 0.333486 0.981326
vt 0.333486 0.003192
vt 0.669386 0.010005
vt 0.331886 0.994523
vt 0.331886 0.010005
vt 0.340972 0.018772
vt 0.003472 1.003290
vt 0.003472 0.018772
vt 0.988341 0.003517
vt 0.650841 0.988035
vt 0.650841 0.003517
vt 0.667835 0.991513
vt 0.668750 0.991108
vt 0.670986 0.981326
vt 0.669386 0.994523
vt 0.340972 1.003290
vt 0.988341 0.988035
vn 1.0000 0.0000 0.0000
vn 0.0000 0.0000 -1.0000
vn -1.0000 0.0000 0.0000
vn 0.0000 -0.0000 1.0000
vn 0.0000 1.0000 0.0000
vn 0.0000 -1.0000 -0.0000
usemtl Default_OBJ
s 1
f 1/1/1 2/2/1 3/3/1
f 4/4/2 5/5/2 2/6/2
f 6/7/3 7/8/3 5/9/3
f 8/10/4 3/11/4 7/12/4
f 5/13/5 3/14/5 2/15/5
f 4/16/6 8/17/6 6/18/6
f 1/1/1 4/19/1 2/2/1
f 4/4/2 6/20/2 5/5/2
f 6/7/3 8/21/3 7/8/3
f 8/10/4 1/22/4 3/11/4
f 5/13/5 7/23/5 3/14/5
f 4/16/6 1/24/6 8/17/6
