# MagicaVoxel @ Ephtracy

# group
o 

# material
mtllib radiaktif_mortaks.mtl
usemtl palette

# normals
vn -1 0 0
vn 1 0 0
vn 0 0 1
vn 0 0 -1
vn 0 -1 0
vn 0 1 0

# texcoords
vt 0.583984 0.5
vt 0.634766 0.5
vt 0.662109 0.5

# verts
v 0.4 0 0.2
v 0.4 0 0.0999999
v 0.4 0 -5.96046e-008
v 0.4 0 -0.1
v 0.4 0 -0.2
v 0.4 0 -0.3
v 0.4 0 -0.4
v 0.4 0 -0.5
v 0.4 0.2 0.0999999
v 0.4 0.2 -5.96046e-008
v 0.4 0.2 -0.1
v 0.4 0.2 -0.2
v 0.4 0.2 -0.3
v 0.4 0.2 -0.4
v 0.4 0.3 0.0999999
v 0.4 0.3 -0.4
v 0.4 0.4 -5.96046e-008
v 0.4 0.4 -0.1
v 0.4 0.4 -0.2
v 0.4 0.4 -0.3
v 0.4 0.4 -0.4
v 0.4 0.4 -0.5
v 0.4 0.5 0.2
v 0.4 0.5 0.0999999
v 0.4 0.5 -5.96046e-008
v 0.4 0.5 -0.1
v 0.4 0.5 -0.2
v 0.4 0.5 -0.3
v 0.4 0.6 0.2
v 0.4 0.6 0.0999999
v 0.4 0.6 -0.4
v 0.4 0.6 -0.5
v 0.4 0.7 0.0999999
v 0.4 0.7 -0.4
v 0.6 0 0.2
v 0.6 0 0.0999999
v 0.6 0 -5.96046e-008
v 0.6 0 -0.1
v 0.6 0 -0.2
v 0.6 0 -0.3
v 0.6 0 -0.4
v 0.6 0 -0.5
v 0.6 0.2 0.0999999
v 0.6 0.2 -5.96046e-008
v 0.6 0.2 -0.1
v 0.6 0.2 -0.2
v 0.6 0.2 -0.3
v 0.6 0.2 -0.4
v 0.6 0.3 -5.96046e-008
v 0.6 0.3 -0.2
v 0.6 0.4 0.2
v 0.6 0.4 -5.96046e-008
v 0.6 0.4 -0.2
v 0.6 0.4 -0.4
v 0.6 0.5 -0.4
v 0.6 0.5 -0.5
v 0.6 0.6 0.2
v 0.6 0.6 0.0999999
v 0.6 0.6 -0.4
v 0.6 0.6 -0.5
v 0.6 0.7 0.0999999
v 0.6 0.7 -0.4
v 0.4 0 0.2
v 0.4 0.5 0.2
v 0.4 0.6 0.2
v 0.5 0.4 0.2
v 0.5 0.5 0.2
v 0.6 0 0.2
v 0.6 0.4 0.2
v 0.6 0.6 0.2
v 0.4 0.6 0.0999999
v 0.4 0.7 0.0999999
v 0.6 0.6 0.0999999
v 0.6 0.7 0.0999999
v 0.4 0 -5.96046e-008
v 0.4 0.2 -5.96046e-008
v 0.6 0 -5.96046e-008
v 0.6 0.2 -5.96046e-008
v 0.4 0 -0.2
v 0.4 0.2 -0.2
v 0.6 0 -0.2
v 0.6 0.2 -0.2
v 0.4 0 -0.4
v 0.4 0.2 -0.4
v 0.6 0 -0.4
v 0.6 0.2 -0.4
v 0.4 0 0.0999999
v 0.4 0.2 0.0999999
v 0.6 0 0.0999999
v 0.6 0.2 0.0999999
v 0.4 0 -0.1
v 0.4 0.2 -0.1
v 0.6 0 -0.1
v 0.6 0.2 -0.1
v 0.4 0 -0.3
v 0.4 0.2 -0.3
v 0.6 0 -0.3
v 0.6 0.2 -0.3
v 0.4 0.6 -0.4
v 0.4 0.7 -0.4
v 0.6 0.6 -0.4
v 0.6 0.7 -0.4
v 0.4 0 -0.5
v 0.4 0.4 -0.5
v 0.4 0.6 -0.5
v 0.5 0.4 -0.5
v 0.5 0.5 -0.5
v 0.6 0 -0.5
v 0.6 0.5 -0.5
v 0.6 0.6 -0.5
v 0.4 0 0.2
v 0.6 0 0.2
v 0.4 0 0.0999999
v 0.6 0 0.0999999
v 0.4 0 -5.96046e-008
v 0.6 0 -5.96046e-008
v 0.4 0 -0.1
v 0.6 0 -0.1
v 0.4 0 -0.2
v 0.6 0 -0.2
v 0.4 0 -0.3
v 0.6 0 -0.3
v 0.4 0 -0.4
v 0.6 0 -0.4
v 0.4 0 -0.5
v 0.6 0 -0.5
v 0.4 0.2 0.0999999
v 0.6 0.2 0.0999999
v 0.4 0.2 -5.96046e-008
v 0.6 0.2 -5.96046e-008
v 0.4 0.2 -0.1
v 0.6 0.2 -0.1
v 0.4 0.2 -0.2
v 0.6 0.2 -0.2
v 0.4 0.2 -0.3
v 0.6 0.2 -0.3
v 0.4 0.2 -0.4
v 0.6 0.2 -0.4
v 0.4 0.6 0.2
v 0.6 0.6 0.2
v 0.4 0.6 0.0999999
v 0.6 0.6 0.0999999
v 0.4 0.6 -0.4
v 0.6 0.6 -0.4
v 0.4 0.6 -0.5
v 0.6 0.6 -0.5
v 0.4 0.7 0.0999999
v 0.6 0.7 0.0999999
v 0.4 0.7 -0.4
v 0.6 0.7 -0.4

# faces
f 9/1/1 2/1/1 1/1/1
f 10/1/1 4/1/1 3/1/1
f 11/1/1 4/1/1 10/1/1
f 12/1/1 6/1/1 5/1/1
f 13/1/1 6/1/1 12/1/1
f 14/1/1 8/1/1 7/1/1
f 15/1/1 13/1/1 12/1/1
f 15/1/1 14/1/1 13/1/1
f 15/1/1 9/1/1 1/1/1
f 15/1/1 11/1/1 10/1/1
f 15/1/1 12/1/1 11/1/1
f 15/1/1 10/1/1 9/1/1
f 16/1/1 8/1/1 14/1/1
f 16/1/1 14/1/1 15/1/1
f 17/3/1 16/3/1 15/3/1
f 18/3/1 16/3/1 17/3/1
f 19/3/1 16/3/1 18/3/1
f 20/3/1 16/3/1 19/3/1
f 21/1/1 8/1/1 16/1/1
f 21/3/1 16/3/1 20/3/1
f 22/1/1 8/1/1 21/1/1
f 23/1/1 15/1/1 1/1/1
f 24/3/1 17/3/1 15/3/1
f 24/1/1 15/1/1 23/1/1
f 25/1/1 18/1/1 17/1/1
f 25/3/1 17/3/1 24/3/1
f 26/3/1 19/3/1 18/3/1
f 26/1/1 18/1/1 25/1/1
f 27/1/1 20/1/1 19/1/1
f 27/3/1 19/3/1 26/3/1
f 28/3/1 21/3/1 20/3/1
f 28/1/1 20/1/1 27/1/1
f 29/2/1 24/2/1 23/2/1
f 30/3/1 26/3/1 25/3/1
f 30/2/1 24/2/1 29/2/1
f 30/3/1 25/3/1 24/3/1
f 30/3/1 28/3/1 27/3/1
f 30/3/1 27/3/1 26/3/1
f 31/3/1 21/3/1 28/3/1
f 31/3/1 28/3/1 30/3/1
f 31/2/1 22/2/1 21/2/1
f 32/2/1 22/2/1 31/2/1
f 33/2/1 31/2/1 30/2/1
f 34/2/1 31/2/1 33/2/1
f 35/1/2 36/1/2 43/1/2
f 37/1/2 38/1/2 44/1/2
f 44/1/2 38/1/2 45/1/2
f 39/1/2 40/1/2 46/1/2
f 46/1/2 40/1/2 47/1/2
f 41/1/2 42/1/2 48/1/2
f 46/1/2 47/1/2 49/1/2
f 47/1/2 48/1/2 49/1/2
f 44/1/2 45/1/2 49/1/2
f 43/1/2 44/1/2 49/1/2
f 45/1/2 46/1/2 49/1/2
f 49/1/2 48/1/2 50/1/2
f 35/1/2 43/1/2 51/1/2
f 43/1/2 49/1/2 51/1/2
f 49/2/2 50/2/2 52/2/2
f 51/1/2 49/1/2 52/1/2
f 50/1/2 48/1/2 53/1/2
f 52/2/2 50/2/2 53/2/2
f 48/1/2 42/1/2 54/1/2
f 53/1/2 48/1/2 54/1/2
f 52/2/2 53/2/2 55/2/2
f 54/1/2 42/1/2 55/1/2
f 53/2/2 54/2/2 55/2/2
f 51/2/2 52/2/2 55/2/2
f 55/1/2 42/1/2 56/1/2
f 51/2/2 55/2/2 57/2/2
f 55/2/2 56/2/2 57/2/2
f 57/2/2 56/2/2 58/2/2
f 58/2/2 56/2/2 59/2/2
f 59/2/2 56/2/2 60/2/2
f 58/2/2 59/2/2 61/2/2
f 61/2/2 59/2/2 62/2/2
f 66/1/3 64/1/3 63/1/3
f 67/2/3 65/2/3 64/2/3
f 67/1/3 64/1/3 66/1/3
f 68/1/3 66/1/3 63/1/3
f 69/2/3 67/2/3 66/2/3
f 69/1/3 66/1/3 68/1/3
f 70/2/3 65/2/3 67/2/3
f 70/2/3 67/2/3 69/2/3
f 73/2/3 72/2/3 71/2/3
f 74/2/3 72/2/3 73/2/3
f 77/1/3 76/1/3 75/1/3
f 78/1/3 76/1/3 77/1/3
f 81/1/3 80/1/3 79/1/3
f 82/1/3 80/1/3 81/1/3
f 85/1/3 84/1/3 83/1/3
f 86/1/3 84/1/3 85/1/3
f 87/1/4 88/1/4 89/1/4
f 89/1/4 88/1/4 90/1/4
f 91/1/4 92/1/4 93/1/4
f 93/1/4 92/1/4 94/1/4
f 95/1/4 96/1/4 97/1/4
f 97/1/4 96/1/4 98/1/4
f 99/2/4 100/2/4 101/2/4
f 101/2/4 100/2/4 102/2/4
f 103/1/4 104/1/4 106/1/4
f 104/2/4 105/2/4 106/2/4
f 106/2/4 105/2/4 107/2/4
f 103/1/4 106/1/4 108/1/4
f 106/1/4 107/1/4 108/1/4
f 107/2/4 105/2/4 109/2/4
f 108/1/4 107/1/4 109/1/4
f 109/2/4 105/2/4 110/2/4
f 113/1/5 112/1/5 111/1/5
f 114/1/5 112/1/5 113/1/5
f 117/1/5 116/1/5 115/1/5
f 118/1/5 116/1/5 117/1/5
f 121/1/5 120/1/5 119/1/5
f 122/1/5 120/1/5 121/1/5
f 125/1/5 124/1/5 123/1/5
f 126/1/5 124/1/5 125/1/5
f 129/1/5 128/1/5 127/1/5
f 130/1/5 128/1/5 129/1/5
f 133/1/5 132/1/5 131/1/5
f 134/1/5 132/1/5 133/1/5
f 137/1/5 136/1/5 135/1/5
f 138/1/5 136/1/5 137/1/5
f 139/2/6 140/2/6 141/2/6
f 141/2/6 140/2/6 142/2/6
f 143/2/6 144/2/6 145/2/6
f 145/2/6 144/2/6 146/2/6
f 147/2/6 148/2/6 149/2/6
f 149/2/6 148/2/6 150/2/6
